<svg version="1.1" id="Layer_1" xmlns="http://www.w3.org/2000/svg" xmlns:xlink="http://www.w3.org/1999/xlink" x="0px" y="0px"
	 width="100%" viewBox="0 0 500 500" enable-background="new 0 0 500 500" xml:space="preserve">
<path fill="#010100" opacity="1.000000" stroke="none" 
	d="
M329.000000,501.000000 
	C219.333359,501.000000 110.166718,501.000000 1.000059,501.000000 
	C1.000039,334.333405 1.000039,167.666794 1.000020,1.000148 
	C167.666565,1.000099 334.333130,1.000099 500.999756,1.000049 
	C500.999847,167.666519 500.999847,334.333038 500.999939,500.999786 
	C443.833344,501.000000 386.666656,501.000000 329.000000,501.000000 
M256.905670,81.524254 
	C267.507965,97.501694 278.110291,113.479141 289.520935,130.674744 
	C278.563751,130.674744 269.184540,130.674744 259.843323,130.674744 
	C259.843323,139.847382 259.843323,148.302338 259.843323,157.074615 
	C284.678894,157.074615 309.254364,157.074615 334.694214,157.074615 
	C307.258972,115.764671 280.214020,75.042374 252.843048,33.829197 
	C225.248352,75.205025 198.109329,115.897598 170.795380,156.852463 
	C196.264908,156.852463 221.119888,156.852463 245.846786,156.852463 
	C245.846786,147.859039 245.846786,139.412872 245.846786,130.223206 
	C236.105377,130.223206 226.604675,130.223206 216.143005,130.223206 
	C228.640701,111.491516 240.481094,93.745026 252.666183,75.481895 
	C254.218445,77.701286 255.341324,79.306770 256.905670,81.524254 
M292.145508,316.727692 
	C293.119537,316.099762 294.917755,315.499268 294.939697,314.839691 
	C295.152496,308.439545 295.067566,302.029480 295.067566,295.062653 
	C278.394440,295.062653 262.505188,295.062653 246.200073,295.062653 
	C246.200073,283.015717 246.362335,271.545197 246.110840,260.083771 
	C246.024429,256.146027 247.479797,255.407867 251.043839,255.461136 
	C263.869629,255.652802 276.700134,255.541138 289.528778,255.517426 
	C291.291931,255.514160 293.054779,255.360535 294.790222,255.277832 
	C294.790222,247.985809 294.790222,241.233444 294.790222,234.305206 
	C271.074768,234.305206 247.684525,234.305206 224.090805,234.305206 
	C223.985229,235.570374 223.834259,236.537003 223.834000,237.503662 
	C223.821838,282.818237 223.857834,328.132874 223.753922,373.447205 
	C223.745819,376.982300 224.873871,378.019073 228.330231,377.996246 
	C249.488251,377.856476 270.647491,377.907928 291.806305,377.870270 
	C292.757721,377.868561 293.708710,377.620544 294.871460,377.457611 
	C294.871460,370.462372 294.871460,363.703491 294.871460,356.203918 
	C278.654022,356.203918 262.622925,356.203918 246.530640,356.203918 
	C246.530640,342.717377 246.530640,329.973297 246.530640,316.730072 
	C261.637268,316.730072 276.419434,316.730072 292.145508,316.727692 
M227.075546,206.376831 
	C256.314117,206.376831 285.552704,206.376831 315.212585,206.376831 
	C315.212585,208.705948 315.212860,210.343201 315.212555,211.980453 
	C315.209412,227.808212 315.205292,243.635956 315.203247,259.463715 
	C315.198364,296.783905 315.194092,334.104095 315.190491,371.424286 
	C315.189880,377.790131 315.191986,377.788239 321.780487,377.776154 
	C325.279266,377.769745 328.791595,377.578156 332.272980,377.823212 
	C335.770599,378.069458 336.777222,376.864624 336.770355,373.297455 
	C336.653320,312.319794 336.682953,251.341873 336.666565,190.363998 
	C336.666138,188.742004 336.512268,187.120041 336.418518,185.272400 
	C298.739288,185.272400 261.477753,185.272400 223.531693,185.272400 
	C223.531693,191.672211 223.443970,197.957840 223.648880,204.233887 
	C223.673004,204.972504 225.305359,205.658600 227.075546,206.376831 
M168.760300,231.499878 
	C168.760300,280.057343 168.760300,328.614807 168.760300,377.434753 
	C176.119690,377.434753 182.848190,377.434753 189.758911,377.434753 
	C189.758911,313.267883 189.758911,249.430771 189.758911,185.384369 
	C182.727234,185.384369 176.001053,185.384369 168.760025,185.384369 
	C168.760025,200.615372 168.760025,215.557617 168.760300,231.499878 
M371.707397,377.566162 
	C408.035858,377.566162 444.364319,377.566162 481.702728,377.566162 
	C478.837952,373.202850 476.597412,370.099518 474.680267,366.807831 
	C470.289307,359.268738 463.768463,356.113861 455.145874,356.264709 
	C442.987701,356.477417 430.823090,356.325562 418.661224,356.322296 
	C402.167725,356.317902 385.673920,356.353729 369.180939,356.256073 
	C366.102295,356.237823 363.988129,356.523895 364.308380,360.468781 
	C364.604034,364.110626 364.762604,367.842194 364.304230,371.448181 
	C363.621613,376.818298 365.950104,378.347198 371.707397,377.566162 
M80.500145,356.305542 
	C69.837540,356.309509 59.174538,356.369293 48.512497,356.293732 
	C43.252518,356.256439 38.345352,357.539642 34.957600,361.532349 
	C31.029495,366.161896 27.802128,371.386017 23.687757,377.171631 
	C63.497551,377.171631 102.156281,377.171631 140.798874,377.171631 
	C140.798874,370.113434 140.798874,363.379211 140.798874,356.305634 
	C120.776611,356.305634 101.138382,356.305634 80.500145,356.305542 
M423.497803,316.341705 
	C429.053253,316.341705 434.608704,316.341705 441.057739,316.341705 
	C438.218231,312.050842 435.905640,308.806610 433.854553,305.404724 
	C429.593597,298.337494 423.499115,295.068817 415.190430,295.174500 
	C400.035675,295.367310 384.876434,295.200500 369.719086,295.208252 
	C368.114319,295.209045 366.509613,295.373505 364.380341,295.490967 
	C364.380341,301.018707 364.641815,306.158142 364.298187,311.256836 
	C364.019867,315.386597 365.289062,316.705902 369.534058,316.636169 
	C387.185913,316.346039 404.843536,316.405243 423.497803,316.341705 
M122.500542,316.366516 
	C128.591476,316.366516 134.682419,316.366516 140.814789,316.366516 
	C140.814789,309.062988 140.814789,302.349609 140.814789,295.201233 
	C138.804367,295.201233 137.173462,295.200470 135.542557,295.201294 
	C121.238113,295.208435 106.933670,295.218536 92.629227,295.222504 
	C78.844414,295.226318 69.552391,302.392487 65.618660,316.360809 
	C84.315483,316.360809 102.908104,316.360809 122.500542,316.366516 
M395.027100,255.279068 
	C396.408417,255.155396 397.789734,255.031708 399.354858,254.891556 
	C390.791748,236.542801 381.000122,230.919266 364.798035,234.823868 
	C364.798035,241.488373 364.798035,248.194717 364.798035,255.282166 
	C374.848694,255.282166 384.486267,255.282166 395.027100,255.279068 
M116.521065,238.960876 
	C112.908562,244.033051 109.296051,249.105225 105.162216,254.909363 
	C117.826393,254.909363 129.301239,254.909363 140.757263,254.909363 
	C140.757263,247.813293 140.757263,241.107086 140.757263,234.111099 
	C132.340714,234.317490 124.004158,232.388672 116.521065,238.960876 
M411.593201,435.851746 
	C411.598206,432.361847 411.821472,428.854523 411.544525,425.387146 
	C411.286987,422.162903 412.874695,418.446960 410.351654,415.688446 
	C409.723236,415.740631 409.094818,415.792816 408.466400,415.845001 
	C408.466400,421.405029 408.466400,426.965088 408.466400,432.525146 
	C408.047638,432.581696 407.628845,432.638275 407.210083,432.694824 
	C402.564758,426.858887 397.919403,421.022980 392.520752,414.240631 
	C392.520752,423.786591 392.520752,431.703064 392.520752,439.619537 
	C393.012634,439.624329 393.504547,439.629089 393.996429,439.633881 
	C394.242432,434.134186 394.488403,428.634460 394.794495,421.791412 
	C400.344727,428.799316 404.845215,434.481781 410.030457,441.028839 
	C410.781494,438.925476 411.179321,437.811371 411.593201,435.851746 
M469.801788,434.048248 
	C471.543091,436.037811 473.284363,438.027405 475.696930,440.783966 
	C479.428223,432.169586 482.857880,424.251648 486.287537,416.333679 
	C485.488525,415.965485 484.689514,415.597290 483.890503,415.229095 
	C481.028564,421.421082 478.166656,427.613068 474.992493,434.480591 
	C473.219513,431.389404 472.016876,429.292542 470.371399,426.423645 
	C468.644257,429.285736 467.352386,431.426453 465.591370,434.344666 
	C463.785339,430.347626 462.311157,427.083557 460.835785,423.820038 
	C457.527527,416.502411 457.527283,416.502533 454.431061,416.284821 
	C458.030243,424.481293 461.502045,432.387756 464.973877,440.294189 
	C465.490753,440.263855 466.007599,440.233490 466.524475,440.203156 
	C467.445068,438.347321 468.365662,436.491516 469.801788,434.048248 
M98.112999,435.139679 
	C97.638794,438.991425 99.192352,440.603363 103.185905,440.278381 
	C107.389572,439.936310 111.628929,440.032776 115.852692,439.937653 
	C115.847595,439.141754 115.842506,438.345825 115.837410,437.549927 
	C111.094116,437.549927 106.350822,437.549927 101.808052,437.549927 
	C100.574921,429.290680 100.575325,429.318665 107.260918,429.222748 
	C108.896706,429.199280 110.528923,428.926849 112.162781,428.768860 
	C112.188110,428.199951 112.213440,427.631042 112.238770,427.062134 
	C110.634743,426.811523 109.037849,426.491669 107.425117,426.325500 
	C104.574097,426.031769 100.939003,427.662292 100.999229,422.156799 
	C101.062408,416.381195 105.043259,418.676727 107.682137,418.345123 
	C110.378693,418.006287 113.128006,418.087341 115.854218,417.984528 
	C115.835457,417.101318 115.816704,416.218079 115.797943,415.334869 
	C111.127861,415.334869 106.456482,415.401123 101.788177,415.310028 
	C98.984009,415.255310 97.964943,416.489014 98.040115,419.234375 
	C98.176735,424.223572 98.096367,429.218719 98.112999,435.139679 
M421.780670,422.410126 
	C419.113739,427.751892 420.305359,432.563141 424.298584,436.567017 
	C427.833557,440.111359 432.253082,441.355804 437.141663,439.480011 
	C442.634583,437.372314 445.406189,432.989929 445.188782,427.014679 
	C445.000824,421.849060 441.629425,417.432617 436.682343,415.871552 
	C431.181152,414.135681 426.301636,416.097290 421.780670,422.410126 
M308.493195,416.850250 
	C306.584412,414.846497 305.701599,415.725891 305.652924,417.996277 
	C305.563965,422.148315 305.523926,426.308228 305.677399,430.456970 
	C305.891235,436.237213 309.648956,440.105316 314.897583,440.204041 
	C320.089417,440.301727 324.091309,436.536041 324.479980,430.768799 
	C324.758759,426.632294 324.646423,422.463470 324.553406,418.312531 
	C324.533142,417.407806 323.852295,416.517853 322.977417,414.434692 
	C322.313385,416.608276 321.841248,417.465546 321.822968,418.332336 
	C321.742432,422.151581 321.985413,425.985596 321.747681,429.791595 
	C321.440491,434.709381 318.754883,437.419800 314.738922,437.115234 
	C310.132538,436.765869 308.607391,433.767914 308.630127,429.579498 
	C308.651764,425.591888 308.658051,421.604248 308.493195,416.850250 
M75.229797,439.317902 
	C82.169098,441.238617 86.571487,439.817841 88.615868,434.201355 
	C86.765755,435.039673 85.518311,435.594421 84.279625,436.168091 
	C79.783615,438.250305 74.978645,437.201508 72.206207,433.526031 
	C69.346146,429.734283 69.490700,425.264801 72.589775,421.666870 
	C75.689545,418.068115 80.214684,417.367279 84.766479,419.716003 
	C85.886093,420.293732 87.100540,420.687714 88.271393,421.166168 
	C88.234253,419.299927 87.689461,418.289703 86.855186,417.667938 
	C81.300331,413.527985 73.320915,415.078033 69.353233,420.992157 
	C65.099998,427.331909 67.126289,434.406677 75.229797,439.317902 
M340.854248,419.948639 
	C345.469849,419.834015 350.085419,419.719391 354.360596,419.613220 
	C352.971191,416.431671 348.864380,414.548157 343.862305,415.543091 
	C337.905182,416.727997 333.690582,421.919617 333.745911,428.004608 
	C333.798309,433.767792 338.015381,438.820129 343.780548,440.026611 
	C348.652893,441.046265 353.050781,439.068512 354.911804,434.416595 
	C348.439087,437.257782 342.075348,439.779572 337.787262,432.125427 
	C335.330017,427.739288 336.704132,423.783447 340.854248,419.948639 
M376.812103,422.392303 
	C378.753876,420.507019 380.695648,418.621765 382.637421,416.736511 
	C382.152954,416.221649 381.668457,415.706757 381.183960,415.191895 
	C376.806946,418.788055 372.429932,422.384216 368.052917,425.980377 
	C367.634399,425.719910 367.215912,425.459442 366.797394,425.198975 
	C366.797394,422.064117 366.797394,418.929291 366.797394,414.652710 
	C364.009308,419.808319 364.266815,436.537292 366.756897,439.208069 
	C367.035553,435.795929 367.294067,432.629944 367.552612,429.463959 
	C368.023529,429.224243 368.494415,428.984497 368.965332,428.744781 
	C373.008698,432.584045 377.052063,436.423340 381.095428,440.262634 
	C381.605286,439.733826 382.115173,439.205048 382.625031,438.676239 
	C380.465424,436.360260 378.485443,433.836731 376.104614,431.776398 
	C372.420990,428.588684 371.644745,425.760864 376.812103,422.392303 
M125.796333,416.072968 
	C125.636200,420.341217 125.375168,424.608490 125.335419,428.877869 
	C125.228981,440.310547 125.266884,440.339050 136.914413,440.252258 
	C139.137558,440.235687 141.358322,439.899567 143.580170,439.710876 
	C143.551788,438.969727 143.523392,438.228546 143.495010,437.487366 
	C138.546112,437.487366 133.597214,437.487366 128.225677,437.487366 
	C128.225677,430.976166 128.351318,425.513641 128.143250,420.063873 
	C128.086472,418.576904 127.026344,417.128235 125.796333,416.072968 
M153.107666,429.457275 
	C153.115265,431.957184 152.995621,434.467102 153.191132,436.952240 
	C153.272964,437.992554 153.991592,439.842346 154.474762,439.860168 
	C160.061264,440.066437 165.658142,439.991882 171.252258,439.991882 
	C171.277222,439.474152 171.302185,438.956390 171.327164,438.438660 
	C170.524551,438.085358 169.749634,437.525726 168.914642,437.413605 
	C164.769470,436.856995 158.542313,437.858154 156.958786,435.585754 
	C154.821106,432.518127 156.245728,426.965057 156.151413,422.478271 
	C156.119904,420.978882 156.244812,419.462433 156.053055,417.985626 
	C155.945068,417.154022 155.337128,416.387360 154.954422,415.591431 
	C154.339066,415.621094 153.723724,415.650757 153.108368,415.680420 
	C153.108368,419.947052 153.108368,424.213654 153.107666,429.457275 
M245.814377,430.433380 
	C245.826599,428.445251 246.061035,426.428162 245.806305,424.474854 
	C245.216293,419.950928 246.496887,417.491089 251.589005,418.199860 
	C252.376205,418.309448 253.308182,417.378937 254.173218,416.929413 
	C247.530487,415.074585 241.215240,414.982666 234.899017,416.597168 
	C235.891861,417.728821 236.959290,418.321106 237.932144,418.193329 
	C242.444901,417.600647 243.192932,419.999268 242.968552,423.769318 
	C242.732712,427.731842 242.844650,431.720398 242.939529,435.694366 
	C242.973648,437.123016 243.400269,438.542297 243.647781,439.965851 
	C244.371185,439.924500 245.094604,439.883148 245.818024,439.841797 
	C245.818024,437.026825 245.818024,434.211823 245.814377,430.433380 
M277.951233,435.182770 
	C277.465271,439.042572 279.008698,440.650665 283.017487,440.306732 
	C286.486664,440.009094 290.004730,440.325195 293.494751,440.196533 
	C294.403473,440.163055 295.288239,439.481476 296.184021,439.097595 
	C296.112671,438.484650 296.041351,437.871674 295.970032,437.258728 
	C292.284393,437.258728 288.591400,437.115112 284.915375,437.303131 
	C281.842255,437.460297 280.790680,436.226807 280.903717,433.232819 
	C281.073181,428.745850 281.011963,424.246063 280.904785,419.755188 
	C280.872040,418.383331 280.365967,417.022766 280.076691,415.657043 
	C279.365417,415.704315 278.654175,415.751587 277.942932,415.798889 
	C277.942932,421.947723 277.942932,428.096558 277.951233,435.182770 
M194.976852,426.529877 
	C195.066452,430.964783 195.156067,435.399689 195.245667,439.834625 
	C195.927185,439.806519 196.608704,439.778442 197.290222,439.750336 
	C197.290222,431.751434 197.290222,423.752533 197.290222,415.753601 
	C196.676437,415.695557 196.062668,415.637512 195.448883,415.579468 
	C195.291275,418.905518 195.133667,422.231598 194.976852,426.529877 
M29.480335,437.295898 
	C26.484493,437.434418 23.488651,437.572968 20.492809,437.711487 
	C20.542889,438.460632 20.592968,439.209778 20.643047,439.958923 
	C26.383503,440.178986 32.141331,441.067200 37.831799,439.364807 
	C37.832050,438.673157 37.832302,437.981506 37.832550,437.289856 
	C35.355392,437.289856 32.878235,437.289856 29.480335,437.295898 
M208.819366,437.465149 
	C208.614014,438.239563 208.408676,439.013947 208.203339,439.788361 
	C213.733322,439.788361 219.263290,439.788361 224.793274,439.788361 
	C224.824646,438.960114 224.856018,438.131866 224.887390,437.303619 
	C219.785156,437.303619 214.682922,437.303619 208.819366,437.465149 
M220.876099,429.282806 
	C222.215134,428.947174 223.554184,428.611542 224.893219,428.275909 
	C224.808945,427.785706 224.724670,427.295532 224.640381,426.805328 
	C218.954285,425.944641 213.296768,425.938324 207.665604,426.718994 
	C207.654327,427.572754 207.643051,428.426483 207.631760,429.280243 
	C211.757477,429.280243 215.883179,429.280243 220.876099,429.282806 
M32.197033,426.272736 
	C28.328911,426.421722 24.460789,426.570709 20.592667,426.719727 
	C24.851385,430.148499 35.237709,429.824280 38.205048,426.911011 
	C36.184803,426.670929 34.630749,426.486267 32.197033,426.272736 
M212.908142,415.450653 
	C211.161148,415.660492 209.414169,415.870331 207.667191,416.080170 
	C207.721924,416.527527 207.776672,416.974884 207.831406,417.422241 
	C213.458694,417.422241 219.085983,417.422241 224.713287,417.422241 
	C224.719193,416.764465 224.725113,416.106689 224.731018,415.448914 
	C221.086655,415.448914 217.442276,415.448914 212.908142,415.450653 
M33.149117,418.156403 
	C34.669071,417.890076 36.189022,417.623718 37.708977,417.357391 
	C37.628155,416.975159 37.547333,416.592957 37.466515,416.210724 
	C31.914412,416.210724 26.362309,416.210724 20.810207,416.210724 
	C20.806679,416.859467 20.803152,417.508240 20.799625,418.156982 
	C24.611773,418.156982 28.423918,418.156982 33.149117,418.156403 
M48.144440,428.826660 
	C51.324856,428.826660 54.505272,428.826660 57.685688,428.826660 
	C53.862751,425.445312 50.245232,425.600525 48.144440,428.826660 
z"/>
<path fill="#E8B744" opacity="1.000000" stroke="none" 
	d="
M256.684937,81.218246 
	C255.341324,79.306770 254.218445,77.701286 252.666183,75.481895 
	C240.481094,93.745026 228.640701,111.491516 216.143005,130.223206 
	C226.604675,130.223206 236.105377,130.223206 245.846786,130.223206 
	C245.846786,139.412872 245.846786,147.859039 245.846786,156.852463 
	C221.119888,156.852463 196.264908,156.852463 170.795380,156.852463 
	C198.109329,115.897598 225.248352,75.205025 252.843048,33.829197 
	C280.214020,75.042374 307.258972,115.764671 334.694214,157.074615 
	C309.254364,157.074615 284.678894,157.074615 259.843323,157.074615 
	C259.843323,148.302338 259.843323,139.847382 259.843323,130.674744 
	C269.184540,130.674744 278.563751,130.674744 289.520935,130.674744 
	C278.110291,113.479141 267.507965,97.501694 256.684937,81.218246 
z"/>
<path fill="#E6B644" opacity="1.000000" stroke="none" 
	d="
M291.673553,316.728882 
	C276.419434,316.730072 261.637268,316.730072 246.530640,316.730072 
	C246.530640,329.973297 246.530640,342.717377 246.530640,356.203918 
	C262.622925,356.203918 278.654022,356.203918 294.871460,356.203918 
	C294.871460,363.703491 294.871460,370.462372 294.871460,377.457611 
	C293.708710,377.620544 292.757721,377.868561 291.806305,377.870270 
	C270.647491,377.907928 249.488251,377.856476 228.330231,377.996246 
	C224.873871,378.019073 223.745819,376.982300 223.753922,373.447205 
	C223.857834,328.132874 223.821838,282.818237 223.834000,237.503662 
	C223.834259,236.537003 223.985229,235.570374 224.090805,234.305206 
	C247.684525,234.305206 271.074768,234.305206 294.790222,234.305206 
	C294.790222,241.233444 294.790222,247.985809 294.790222,255.277832 
	C293.054779,255.360535 291.291931,255.514160 289.528778,255.517426 
	C276.700134,255.541138 263.869629,255.652802 251.043839,255.461136 
	C247.479797,255.407867 246.024429,256.146027 246.110840,260.083771 
	C246.362335,271.545197 246.200073,283.015717 246.200073,295.062653 
	C262.505188,295.062653 278.394440,295.062653 295.067566,295.062653 
	C295.067566,302.029480 295.152496,308.439545 294.939697,314.839691 
	C294.917755,315.499268 293.119537,316.099762 291.673553,316.728882 
z"/>
<path fill="#E3B443" opacity="1.000000" stroke="none" 
	d="
M226.633881,206.372925 
	C225.305359,205.658600 223.673004,204.972504 223.648880,204.233887 
	C223.443970,197.957840 223.531693,191.672211 223.531693,185.272400 
	C261.477753,185.272400 298.739288,185.272400 336.418518,185.272400 
	C336.512268,187.120041 336.666138,188.742004 336.666565,190.363998 
	C336.682953,251.341873 336.653320,312.319794 336.770355,373.297455 
	C336.777222,376.864624 335.770599,378.069458 332.272980,377.823212 
	C328.791595,377.578156 325.279266,377.769745 321.780487,377.776154 
	C315.191986,377.788239 315.189880,377.790131 315.190491,371.424286 
	C315.194092,334.104095 315.198364,296.783905 315.203247,259.463715 
	C315.205292,243.635956 315.209412,227.808212 315.212555,211.980453 
	C315.212860,210.343201 315.212585,208.705948 315.212585,206.376831 
	C285.552704,206.376831 256.314117,206.376831 226.633881,206.372925 
z"/>
<path fill="#E9B844" opacity="1.000000" stroke="none" 
	d="
M168.760162,230.999863 
	C168.760025,215.557617 168.760025,200.615372 168.760025,185.384369 
	C176.001053,185.384369 182.727234,185.384369 189.758911,185.384369 
	C189.758911,249.430771 189.758911,313.267883 189.758911,377.434753 
	C182.848190,377.434753 176.119690,377.434753 168.760300,377.434753 
	C168.760300,328.614807 168.760300,280.057343 168.760162,230.999863 
z"/>
<path fill="#DFB145" opacity="1.000000" stroke="none" 
	d="
M371.239777,377.567871 
	C365.950104,378.347198 363.621613,376.818298 364.304230,371.448181 
	C364.762604,367.842194 364.604034,364.110626 364.308380,360.468781 
	C363.988129,356.523895 366.102295,356.237823 369.180939,356.256073 
	C385.673920,356.353729 402.167725,356.317902 418.661224,356.322296 
	C430.823090,356.325562 442.987701,356.477417 455.145874,356.264709 
	C463.768463,356.113861 470.289307,359.268738 474.680267,366.807831 
	C476.597412,370.099518 478.837952,373.202850 481.702728,377.566162 
	C444.364319,377.566162 408.035858,377.566162 371.239777,377.567871 
z"/>
<path fill="#DFB145" opacity="1.000000" stroke="none" 
	d="
M81.000153,356.305603 
	C101.138382,356.305634 120.776611,356.305634 140.798874,356.305634 
	C140.798874,363.379211 140.798874,370.113434 140.798874,377.171631 
	C102.156281,377.171631 63.497551,377.171631 23.687757,377.171631 
	C27.802128,371.386017 31.029495,366.161896 34.957600,361.532349 
	C38.345352,357.539642 43.252518,356.256439 48.512497,356.293732 
	C59.174538,356.369293 69.837540,356.309509 81.000153,356.305603 
z"/>
<path fill="#E2B447" opacity="1.000000" stroke="none" 
	d="
M422.998413,316.338989 
	C404.843536,316.405243 387.185913,316.346039 369.534058,316.636169 
	C365.289062,316.705902 364.019867,315.386597 364.298187,311.256836 
	C364.641815,306.158142 364.380341,301.018707 364.380341,295.490967 
	C366.509613,295.373505 368.114319,295.209045 369.719086,295.208252 
	C384.876434,295.200500 400.035675,295.367310 415.190430,295.174500 
	C423.499115,295.068817 429.593597,298.337494 433.854553,305.404724 
	C435.905640,308.806610 438.218231,312.050842 441.057739,316.341705 
	C434.608704,316.341705 429.053253,316.341705 422.998413,316.338989 
z"/>
<path fill="#E3B647" opacity="1.000000" stroke="none" 
	d="
M122.000626,316.363647 
	C102.908104,316.360809 84.315483,316.360809 65.618660,316.360809 
	C69.552391,302.392487 78.844414,295.226318 92.629227,295.222504 
	C106.933670,295.218536 121.238113,295.208435 135.542557,295.201294 
	C137.173462,295.200470 138.804367,295.201233 140.814789,295.201233 
	C140.814789,302.349609 140.814789,309.062988 140.814789,316.366516 
	C134.682419,316.366516 128.591476,316.366516 122.000626,316.363647 
z"/>
<path fill="#E0B54A" opacity="1.000000" stroke="none" 
	d="
M394.575470,255.280609 
	C384.486267,255.282166 374.848694,255.282166 364.798035,255.282166 
	C364.798035,248.194717 364.798035,241.488373 364.798035,234.823868 
	C381.000122,230.919266 390.791748,236.542801 399.354858,254.891556 
	C397.789734,255.031708 396.408417,255.155396 394.575470,255.280609 
z"/>
<path fill="#E2B74A" opacity="1.000000" stroke="none" 
	d="
M116.794296,238.720474 
	C124.004158,232.388672 132.340714,234.317490 140.757263,234.111099 
	C140.757263,241.107086 140.757263,247.813293 140.757263,254.909363 
	C129.301239,254.909363 117.826393,254.909363 105.162216,254.909363 
	C109.296051,249.105225 112.908562,244.033051 116.794296,238.720474 
z"/>
<path fill="#B89A58" opacity="1.000000" stroke="none" 
	d="
M411.585144,436.274506 
	C411.179321,437.811371 410.781494,438.925476 410.030457,441.028839 
	C404.845215,434.481781 400.344727,428.799316 394.794495,421.791412 
	C394.488403,428.634460 394.242432,434.134186 393.996429,439.633881 
	C393.504547,439.629089 393.012634,439.624329 392.520752,439.619537 
	C392.520752,431.703064 392.520752,423.786591 392.520752,414.240631 
	C397.919403,421.022980 402.564758,426.858887 407.210083,432.694824 
	C407.628845,432.638275 408.047638,432.581696 408.466400,432.525146 
	C408.466400,426.965088 408.466400,421.405029 408.466400,415.845001 
	C409.094818,415.792816 409.723236,415.740631 410.351654,415.688446 
	C412.874695,418.446960 411.286987,422.162903 411.544525,425.387146 
	C411.821472,428.854523 411.598206,432.361847 411.585144,436.274506 
z"/>
<path fill="#B89855" opacity="1.000000" stroke="none" 
	d="
M469.544037,434.341980 
	C468.365662,436.491516 467.445068,438.347321 466.524475,440.203156 
	C466.007599,440.233490 465.490753,440.263855 464.973877,440.294189 
	C461.502045,432.387756 458.030243,424.481293 454.431061,416.284821 
	C457.527283,416.502533 457.527527,416.502411 460.835785,423.820038 
	C462.311157,427.083557 463.785339,430.347626 465.591370,434.344666 
	C467.352386,431.426453 468.644257,429.285736 470.371399,426.423645 
	C472.016876,429.292542 473.219513,431.389404 474.992493,434.480591 
	C478.166656,427.613068 481.028564,421.421082 483.890503,415.229095 
	C484.689514,415.597290 485.488525,415.965485 486.287537,416.333679 
	C482.857880,424.251648 479.428223,432.169586 475.696930,440.783966 
	C473.284363,438.027405 471.543091,436.037811 469.544037,434.341980 
z"/>
<path fill="#AE9256" opacity="1.000000" stroke="none" 
	d="
M98.109772,434.675537 
	C98.096367,429.218719 98.176735,424.223572 98.040115,419.234375 
	C97.964943,416.489014 98.984009,415.255310 101.788177,415.310028 
	C106.456482,415.401123 111.127861,415.334869 115.797943,415.334869 
	C115.816704,416.218079 115.835457,417.101318 115.854218,417.984528 
	C113.128006,418.087341 110.378693,418.006287 107.682137,418.345123 
	C105.043259,418.676727 101.062408,416.381195 100.999229,422.156799 
	C100.939003,427.662292 104.574097,426.031769 107.425117,426.325500 
	C109.037849,426.491669 110.634743,426.811523 112.238770,427.062134 
	C112.213440,427.631042 112.188110,428.199951 112.162781,428.768860 
	C110.528923,428.926849 108.896706,429.199280 107.260918,429.222748 
	C100.575325,429.318665 100.574921,429.290680 101.808052,437.549927 
	C106.350822,437.549927 111.094116,437.549927 115.837410,437.549927 
	C115.842506,438.345825 115.847595,439.141754 115.852692,439.937653 
	C111.628929,440.032776 107.389572,439.936310 103.185905,440.278381 
	C99.192352,440.603363 97.638794,438.991425 98.109772,434.675537 
z"/>
<path fill="#B19556" opacity="1.000000" stroke="none" 
	d="
M421.939453,422.072327 
	C426.301636,416.097290 431.181152,414.135681 436.682343,415.871552 
	C441.629425,417.432617 445.000824,421.849060 445.188782,427.014679 
	C445.406189,432.989929 442.634583,437.372314 437.141663,439.480011 
	C432.253082,441.355804 427.833557,440.111359 424.298584,436.567017 
	C420.305359,432.563141 419.113739,427.751892 421.939453,422.072327 
M425.477844,433.767975 
	C430.950897,438.482300 436.943787,438.333679 440.663574,433.391388 
	C443.738068,429.306458 442.799133,423.038422 438.500702,420.123962 
	C434.616791,417.490570 430.624176,417.639435 426.928406,420.546021 
	C423.108948,423.549927 422.548767,427.706024 425.477844,433.767975 
z"/>
<path fill="#B19556" opacity="1.000000" stroke="none" 
	d="
M308.582153,417.233429 
	C308.658051,421.604248 308.651764,425.591888 308.630127,429.579498 
	C308.607391,433.767914 310.132538,436.765869 314.738922,437.115234 
	C318.754883,437.419800 321.440491,434.709381 321.747681,429.791595 
	C321.985413,425.985596 321.742432,422.151581 321.822968,418.332336 
	C321.841248,417.465546 322.313385,416.608276 322.977417,414.434692 
	C323.852295,416.517853 324.533142,417.407806 324.553406,418.312531 
	C324.646423,422.463470 324.758759,426.632294 324.479980,430.768799 
	C324.091309,436.536041 320.089417,440.301727 314.897583,440.204041 
	C309.648956,440.105316 305.891235,436.237213 305.677399,430.456970 
	C305.523926,426.308228 305.563965,422.148315 305.652924,417.996277 
	C305.701599,415.725891 306.584412,414.846497 308.582153,417.233429 
z"/>
<path fill="#B19556" opacity="1.000000" stroke="none" 
	d="
M74.879227,439.189941 
	C67.126289,434.406677 65.099998,427.331909 69.353233,420.992157 
	C73.320915,415.078033 81.300331,413.527985 86.855186,417.667938 
	C87.689461,418.289703 88.234253,419.299927 88.271393,421.166168 
	C87.100540,420.687714 85.886093,420.293732 84.766479,419.716003 
	C80.214684,417.367279 75.689545,418.068115 72.589775,421.666870 
	C69.490700,425.264801 69.346146,429.734283 72.206207,433.526031 
	C74.978645,437.201508 79.783615,438.250305 84.279625,436.168091 
	C85.518311,435.594421 86.765755,435.039673 88.615868,434.201355 
	C86.571487,439.817841 82.169098,441.238617 74.879227,439.189941 
z"/>
<path fill="#B19556" opacity="1.000000" stroke="none" 
	d="
M340.519531,420.191010 
	C336.704132,423.783447 335.330017,427.739288 337.787262,432.125427 
	C342.075348,439.779572 348.439087,437.257782 354.911804,434.416595 
	C353.050781,439.068512 348.652893,441.046265 343.780548,440.026611 
	C338.015381,438.820129 333.798309,433.767792 333.745911,428.004608 
	C333.690582,421.919617 337.905182,416.727997 343.862305,415.543091 
	C348.864380,414.548157 352.971191,416.431671 354.360596,419.613220 
	C350.085419,419.719391 345.469849,419.834015 340.519531,420.191010 
z"/>
<path fill="#C1A25A" opacity="1.000000" stroke="none" 
	d="
M376.539673,422.631683 
	C371.644745,425.760864 372.420990,428.588684 376.104614,431.776398 
	C378.485443,433.836731 380.465424,436.360260 382.625031,438.676239 
	C382.115173,439.205048 381.605286,439.733826 381.095428,440.262634 
	C377.052063,436.423340 373.008698,432.584045 368.965332,428.744781 
	C368.494415,428.984497 368.023529,429.224243 367.552612,429.463959 
	C367.294067,432.629944 367.035553,435.795929 366.756897,439.208069 
	C364.266815,436.537292 364.009308,419.808319 366.797394,414.652710 
	C366.797394,418.929291 366.797394,422.064117 366.797394,425.198975 
	C367.215912,425.459442 367.634399,425.719910 368.052917,425.980377 
	C372.429932,422.384216 376.806946,418.788055 381.183960,415.191895 
	C381.668457,415.706757 382.152954,416.221649 382.637421,416.736511 
	C380.695648,418.621765 378.753876,420.507019 376.539673,422.631683 
z"/>
<path fill="#AA8E50" opacity="1.000000" stroke="none" 
	d="
M126.111511,415.867493 
	C127.026344,417.128235 128.086472,418.576904 128.143250,420.063873 
	C128.351318,425.513641 128.225677,430.976166 128.225677,437.487366 
	C133.597214,437.487366 138.546112,437.487366 143.495010,437.487366 
	C143.523392,438.228546 143.551788,438.969727 143.580170,439.710876 
	C141.358322,439.899567 139.137558,440.235687 136.914413,440.252258 
	C125.266884,440.339050 125.228981,440.310547 125.335419,428.877869 
	C125.375168,424.608490 125.636200,420.341217 126.111511,415.867493 
z"/>
<path fill="#B19556" opacity="1.000000" stroke="none" 
	d="
M153.108017,428.968781 
	C153.108368,424.213654 153.108368,419.947052 153.108368,415.680420 
	C153.723724,415.650757 154.339066,415.621094 154.954422,415.591431 
	C155.337128,416.387360 155.945068,417.154022 156.053055,417.985626 
	C156.244812,419.462433 156.119904,420.978882 156.151413,422.478271 
	C156.245728,426.965057 154.821106,432.518127 156.958786,435.585754 
	C158.542313,437.858154 164.769470,436.856995 168.914642,437.413605 
	C169.749634,437.525726 170.524551,438.085358 171.327164,438.438660 
	C171.302185,438.956390 171.277222,439.474152 171.252258,439.991882 
	C165.658142,439.991882 160.061264,440.066437 154.474762,439.860168 
	C153.991592,439.842346 153.272964,437.992554 153.191132,436.952240 
	C152.995621,434.467102 153.115265,431.957184 153.108017,428.968781 
z"/>
<path fill="#AA8F55" opacity="1.000000" stroke="none" 
	d="
M245.816193,430.915100 
	C245.818024,434.211823 245.818024,437.026825 245.818024,439.841797 
	C245.094604,439.883148 244.371185,439.924500 243.647781,439.965851 
	C243.400269,438.542297 242.973648,437.123016 242.939529,435.694366 
	C242.844650,431.720398 242.732712,427.731842 242.968552,423.769318 
	C243.192932,419.999268 242.444901,417.600647 237.932144,418.193329 
	C236.959290,418.321106 235.891861,417.728821 234.899017,416.597168 
	C241.215240,414.982666 247.530487,415.074585 254.173218,416.929413 
	C253.308182,417.378937 252.376205,418.309448 251.589005,418.199860 
	C246.496887,417.491089 245.216293,419.950928 245.806305,424.474854 
	C246.061035,426.428162 245.826599,428.445251 245.816193,430.915100 
z"/>
<path fill="#B19556" opacity="1.000000" stroke="none" 
	d="
M277.947083,434.714081 
	C277.942932,428.096558 277.942932,421.947723 277.942932,415.798889 
	C278.654175,415.751587 279.365417,415.704315 280.076691,415.657043 
	C280.365967,417.022766 280.872040,418.383331 280.904785,419.755188 
	C281.011963,424.246063 281.073181,428.745850 280.903717,433.232819 
	C280.790680,436.226807 281.842255,437.460297 284.915375,437.303131 
	C288.591400,437.115112 292.284393,437.258728 295.970032,437.258728 
	C296.041351,437.871674 296.112671,438.484650 296.184021,439.097595 
	C295.288239,439.481476 294.403473,440.163055 293.494751,440.196533 
	C290.004730,440.325195 286.486664,440.009094 283.017487,440.306732 
	C279.008698,440.650665 277.465271,439.042572 277.947083,434.714081 
z"/>
<path fill="#B49860" opacity="1.000000" stroke="none" 
	d="
M194.976456,426.043762 
	C195.133667,422.231598 195.291275,418.905518 195.448883,415.579468 
	C196.062668,415.637512 196.676437,415.695557 197.290222,415.753601 
	C197.290222,423.752533 197.290222,431.751434 197.290222,439.750336 
	C196.608704,439.778442 195.927185,439.806519 195.245667,439.834625 
	C195.156067,435.399689 195.066452,430.964783 194.976456,426.043762 
z"/>
<path fill="#AA8F55" opacity="1.000000" stroke="none" 
	d="
M29.940706,437.292877 
	C32.878235,437.289856 35.355392,437.289856 37.832550,437.289856 
	C37.832302,437.981506 37.832050,438.673157 37.831799,439.364807 
	C32.141331,441.067200 26.383503,440.178986 20.643047,439.958923 
	C20.592968,439.209778 20.542889,438.460632 20.492809,437.711487 
	C23.488651,437.572968 26.484493,437.434418 29.940706,437.292877 
z"/>
<path fill="#AE9256" opacity="1.000000" stroke="none" 
	d="
M209.200027,437.384399 
	C214.682922,437.303619 219.785156,437.303619 224.887390,437.303619 
	C224.856018,438.131866 224.824646,438.960114 224.793274,439.788361 
	C219.263290,439.788361 213.733322,439.788361 208.203339,439.788361 
	C208.408676,439.013947 208.614014,438.239563 209.200027,437.384399 
z"/>
<path fill="#A48952" opacity="1.000000" stroke="none" 
	d="
M220.442490,429.281525 
	C215.883179,429.280243 211.757477,429.280243 207.631760,429.280243 
	C207.643051,428.426483 207.654327,427.572754 207.665604,426.718994 
	C213.296768,425.938324 218.954285,425.944641 224.640381,426.805328 
	C224.724670,427.295532 224.808945,427.785706 224.893219,428.275909 
	C223.554184,428.611542 222.215134,428.947174 220.442490,429.281525 
z"/>
<path fill="#A48952" opacity="1.000000" stroke="none" 
	d="
M32.636864,426.287170 
	C34.630749,426.486267 36.184803,426.670929 38.205048,426.911011 
	C35.237709,429.824280 24.851385,430.148499 20.592667,426.719727 
	C24.460789,426.570709 28.328911,426.421722 32.636864,426.287170 
z"/>
<path fill="#C5A767" opacity="1.000000" stroke="none" 
	d="
M213.353027,415.449768 
	C217.442276,415.448914 221.086655,415.448914 224.731018,415.448914 
	C224.725113,416.106689 224.719193,416.764465 224.713287,417.422241 
	C219.085983,417.422241 213.458694,417.422241 207.831406,417.422241 
	C207.776672,416.974884 207.721924,416.527527 207.667191,416.080170 
	C209.414169,415.870331 211.161148,415.660492 213.353027,415.449768 
z"/>
<path fill="#C5A767" opacity="1.000000" stroke="none" 
	d="
M32.692589,418.156677 
	C28.423918,418.156982 24.611773,418.156982 20.799625,418.156982 
	C20.803152,417.508240 20.806679,416.859467 20.810207,416.210724 
	C26.362309,416.210724 31.914412,416.210724 37.466515,416.210724 
	C37.547333,416.592957 37.628155,416.975159 37.708977,417.357391 
	C36.189022,417.623718 34.669071,417.890076 32.692589,418.156677 
z"/>
<path fill="#A48952" opacity="1.000000" stroke="none" 
	d="
M47.948494,428.523010 
	C50.245232,425.600525 53.862751,425.445312 57.685688,428.826660 
	C54.505272,428.826660 51.324856,428.826660 47.948494,428.523010 
z"/>
<path fill="#070603" opacity="1.000000" stroke="none" 
	d="
M425.246033,433.431396 
	C422.548767,427.706024 423.108948,423.549927 426.928406,420.546021 
	C430.624176,417.639435 434.616791,417.490570 438.500702,420.123962 
	C442.799133,423.038422 443.738068,429.306458 440.663574,433.391388 
	C436.943787,438.333679 430.950897,438.482300 425.246033,433.431396 
z"/>
</svg>